<svg xmlns="http://www.w3.org/2000/svg" viewBox="0 0 820 428" font-size="11" font-family="DejaVu Sans, Verdana, Arial, sans-serif">
<rect x="0" y="0" width="820" height="428" fill="white"/>
<text x="80" y="30" font-size="15" font-weight="bold" fill="#1a1a1a">BIN / ROI / overscan: a worked example (sensor coordinates)</text>
<defs><marker id="ah" markerWidth="10" markerHeight="10" refX="7" refY="3" orient="auto"><path d="M0,0 L7,3 L0,6 Z" fill="#333"/></marker></defs>
<rect x="80.0" y="64.0" width="470.0" height="264.4" fill="#dcdcdc" stroke="#8a8a8a" stroke-width="1.6"/>
<rect x="89.8" y="73.8" width="450.4" height="244.8" fill="#5bb98b" stroke="#2f8f63" stroke-width="1.6"/>
<rect x="104.5" y="88.5" width="342.7" height="146.9" fill="#d8975f" stroke="#9c5f32" stroke-width="1.6"/>
<line x1="80" y1="64" x2="576.0" y2="64" stroke="#333" stroke-width="1.4" marker-end="url(#ah)"/>
<line x1="80" y1="64" x2="80" y2="354.4" stroke="#333" stroke-width="1.4" marker-end="url(#ah)"/>
<text x="574.0" y="58" text-anchor="end" font-size="12" font-weight="bold" fill="#333">X</text>
<text x="74" y="354.4" text-anchor="end" font-size="12" font-weight="bold" fill="#333">Y</text>
<text x="73" y="57" text-anchor="end" font-size="10" fill="#1a1a1a">0</text>
<line x1="89.8" y1="64" x2="89.8" y2="46" stroke="#9a9a9a" stroke-width="0.8"/>
<text x="89.8" y="43" text-anchor="middle" font-size="10" fill="#1a1a1a">40</text>
<line x1="104.5" y1="64" x2="104.5" y2="57" stroke="#9a9a9a" stroke-width="0.8"/>
<text x="104.5" y="54" text-anchor="middle" font-size="10" fill="#1a1a1a">100</text>
<line x1="447.2" y1="64" x2="447.2" y2="46" stroke="#9a9a9a" stroke-width="0.8"/>
<text x="447.2" y="43" text-anchor="middle" font-size="10" fill="#1a1a1a">1500</text>
<line x1="540.2" y1="64" x2="540.2" y2="57" stroke="#9a9a9a" stroke-width="0.8"/>
<text x="540.2" y="54" text-anchor="middle" font-size="10" fill="#1a1a1a">1880</text>
<line x1="550.0" y1="64" x2="550.0" y2="46" stroke="#9a9a9a" stroke-width="0.8"/>
<text x="550.0" y="43" text-anchor="middle" font-size="10" fill="#1a1a1a">1920</text>
<line x1="80" y1="73.8" x2="60" y2="73.8" stroke="#9a9a9a" stroke-width="0.8"/>
<text x="57" y="76.8" text-anchor="end" font-size="10" fill="#1a1a1a">40</text>
<line x1="80" y1="88.5" x2="73" y2="88.5" stroke="#9a9a9a" stroke-width="0.8"/>
<text x="70" y="91.5" text-anchor="end" font-size="10" fill="#1a1a1a">100</text>
<line x1="80" y1="235.4" x2="60" y2="235.4" stroke="#9a9a9a" stroke-width="0.8"/>
<text x="57" y="238.4" text-anchor="end" font-size="10" fill="#1a1a1a">700</text>
<line x1="80" y1="318.6" x2="73" y2="318.6" stroke="#9a9a9a" stroke-width="0.8"/>
<text x="70" y="321.6" text-anchor="end" font-size="10" fill="#1a1a1a">1040</text>
<line x1="80" y1="328.4" x2="60" y2="328.4" stroke="#9a9a9a" stroke-width="0.8"/>
<text x="57" y="331.4" text-anchor="end" font-size="10" fill="#1a1a1a">1080</text>
<rect x="596.0" y="72" width="18" height="13" fill="#dcdcdc" stroke="#8a8a8a"/>
<text x="621.0" y="83" font-weight="bold" fill="#1a1a1a">Overscan area</text>
<text x="621.0" y="98" font-size="10" fill="#1a1a1a">full sensor, 1920 x 1080 px</text>
<rect x="596.0" y="116" width="18" height="13" fill="#5bb98b" stroke="#2f8f63"/>
<text x="621.0" y="127" font-weight="bold" fill="#1a1a1a">Effective area</text>
<text x="621.0" y="142" font-size="10" fill="#1a1a1a">origin (40, 40), 1840 x 1000 px</text>
<rect x="596.0" y="160" width="18" height="13" fill="#d8975f" stroke="#9c5f32"/>
<text x="621.0" y="171" font-weight="bold" fill="#1a1a1a">ROI (region of interest)</text>
<text x="621.0" y="186" font-size="10" fill="#1a1a1a">origin (100, 100), 1400 x 600 px</text>
<text x="80" y="362" font-size="10" fill="#1a1a1a">All coordinates are in sensor pixels measured from the top-left origin (X right, Y down).</text>
<text x="80" y="377" font-size="10" fill="#1a1a1a">The effective area is inset within the full sensor by the overscan margin; the ROI lies inside the effective area.</text>
</svg>